<?xml version="1.0" encoding="iso-8859-1"?>
<!-- Uploaded to: SVG Repo, www.svgrepo.com, Generator: SVG Repo Mixer Tools -->
<svg height="800px" width="800px" version="1.1" id="Layer_1" xmlns="http://www.w3.org/2000/svg" xmlns:xlink="http://www.w3.org/1999/xlink" 
	 viewBox="0 0 512 512" xml:space="preserve">
<path style="fill:#A3FBE5;" d="M512,214.207v83.585l-52.337,5.233c-5.266,22.911-14.302,44.37-26.41,63.713l33.319,40.724
	l-59.111,59.111l-40.724-33.319c-19.343,12.108-40.802,21.144-63.713,26.41L297.793,512h-83.585l-5.233-52.337
	c-22.911-5.266-44.37-14.302-63.713-26.41l-40.724,33.319l-59.111-59.111l33.319-40.724c-12.108-19.343-21.144-40.802-26.41-63.713
	L0,297.793v-83.585l52.337-5.233c5.266-22.911,14.302-44.37,26.41-63.713l-33.319-40.724l59.111-59.111l40.724,33.319
	c19.343-12.108,40.802-21.144,63.713-26.41L214.207,0h83.585l5.233,52.337c22.911,5.266,44.37,14.302,63.713,26.41l40.724-33.319
	l59.111,59.111l-33.319,40.724c12.108,19.343,21.144,40.802,26.41,63.713L512,214.207z"/>
<path style="fill:#A99E9B;" d="M257.834,80.468v351.063c96.11-0.979,173.709-79.186,173.709-175.532S353.944,81.447,257.834,80.468z
	"/>
<path style="fill:#C1B8B5;" d="M257.834,80.468C335.298,81.684,397.785,159.8,397.785,256s-62.487,174.316-139.95,175.532
	c-0.608,0.011-1.227,0.011-1.834,0.011c-96.942,0-175.543-78.589-175.543-175.543S159.058,80.457,256,80.457
	C256.608,80.457,257.227,80.457,257.834,80.468z"/>
<path style="fill:#7F7774;" d="M256,143.473c62.149,0,112.527,50.379,112.527,112.527S318.149,368.527,256,368.527l-33.758-110.693
	L256,143.473z"/>
<path style="fill:#A99E9B;" d="M256,143.473c-62.149,0-112.527,50.379-112.527,112.527S193.851,368.527,256,368.527V143.473z"/>
<path style="fill:#D1FDF2;" d="M229.747,256h-52.517c0,43.503,35.266,78.769,78.769,78.769L229.747,256z"/>
<path style="fill:#FFFFFF;" d="M177.231,256h52.517L256,177.231C212.497,177.231,177.231,212.497,177.231,256z"/>
<g>
	<path style="fill:#4CF5CB;" d="M256,233.495v101.275c43.503,0,78.769-35.266,78.769-78.769L256,233.495z"/>
	<path style="fill:#4CF5CB;" d="M256,177.231V256h78.769C334.769,212.497,299.503,177.231,256,177.231z"/>
</g>
<g>
	<path style="fill:#A3FBE5;" d="M256,233.495v101.275c31.08,0,56.264-35.266,56.264-78.769L256,233.495z"/>
	<path style="fill:#A3FBE5;" d="M256,177.231V256h56.264C312.264,212.497,287.08,177.231,256,177.231z"/>
	<path style="fill:#A3FBE5;" d="M229.747,256L256,233.495L282.264,256c0,43.503-11.759,78.769-26.264,78.769
		C241.506,334.769,229.747,299.503,229.747,256z"/>
</g>
<path style="fill:#D1FDF2;" d="M256,177.231c14.505,0,26.264,35.266,26.264,78.769h-52.517
	C229.747,212.497,241.506,177.231,256,177.231z"/>
<path style="fill:#2DD4AA;" d="M256.002,168.791c-48.086,0-87.209,39.121-87.209,87.209s39.122,87.209,87.209,87.209
	s87.209-39.121,87.209-87.209S304.089,168.791,256.002,168.791z M325.808,247.56H290.55c-0.738-21.37-4.296-42.728-10.948-57.804
	C304.259,198.567,322.587,220.769,325.808,247.56z M256.002,326.33c-0.951,0-5.819-3.079-10.56-17.3
	c-4.019-12.058-6.483-27.657-7.099-44.59h35.317c-0.617,16.933-3.079,32.532-7.099,44.59
	C261.821,323.251,256.953,326.33,256.002,326.33z M238.344,247.56c0.617-16.933,3.079-32.532,7.099-44.59
	c4.741-14.221,9.609-17.3,10.56-17.3c0.951,0,5.819,3.079,10.56,17.3c4.019,12.058,6.483,27.657,7.099,44.59H238.344z
	 M232.401,189.756c-6.651,15.075-10.208,36.434-10.948,57.804h-35.257C189.418,220.769,207.746,198.567,232.401,189.756z
	 M186.197,264.44h35.257c0.738,21.37,4.296,42.728,10.948,57.804C207.746,313.433,189.418,291.231,186.197,264.44z M279.604,322.244
	c6.652-15.075,10.209-36.434,10.948-57.804h35.257C322.587,291.231,304.259,313.433,279.604,322.244z"/>
</svg>